<?xml version="1.0" standalone="no"?>
<!DOCTYPE svg PUBLIC "-//W3C//DTD SVG 20010904//EN"
 "http://www.w3.org/TR/2001/REC-SVG-20010904/DTD/svg10.dtd">
<svg version="1.0" xmlns="http://www.w3.org/2000/svg"
 width="1280.000000pt" height="1280.000000pt" viewBox="0 0 1280.000000 1280.000000"
 preserveAspectRatio="xMidYMid meet">
<metadata>
Created by potrace 1.11, written by Peter Selinger 2001-2013
</metadata>
<g transform="translate(0.000000,1280.000000) scale(0.100000,-0.100000)"
fill="#000000" stroke="none">
<path d="M0 6400 l0 -6400 6400 0 6400 0 0 6400 0 6400 -6400 0 -6400 0 0
-6400z m7195 3971 c64 -29 83 -60 135 -208 26 -76 60 -173 76 -215 15 -43 26
-80 23 -82 -2 -2 -467 -7 -1034 -10 -566 -3 -1080 -9 -1142 -12 -61 -3 -116
-3 -121 0 -14 8 110 399 141 445 37 55 88 83 166 91 36 4 437 8 891 8 782 1
827 1 865 -17z m302 -668 c9 -21 22 -62 29 -91 16 -66 0 -129 -43 -174 -62
-65 7 -61 -1159 -71 -584 -5 -1078 -7 -1097 -3 -48 9 -132 76 -157 126 -24 48
-26 119 -4 183 l16 47 236 1 c131 1 500 5 822 8 322 4 755 8 963 9 l378 2 16
-37z m138 -582 c68 -31 115 -102 115 -173 0 -49 -37 -116 -82 -145 -36 -24
-52 -27 -186 -35 -271 -15 -2795 -59 -2830 -49 -96 28 -148 101 -140 196 5 65
40 115 101 147 47 24 -76 20 1612 53 457 8 868 17 915 18 47 2 168 4 270 5
161 1 190 -1 225 -17z m72 -696 c42 -34 99 -137 106 -194 2 -20 0 -180 -4
-356 -4 -176 -10 -437 -14 -580 -3 -143 -10 -426 -15 -630 -13 -502 -13 -545
3 -549 212 -61 353 -157 454 -309 56 -83 137 -261 160 -351 36 -140 -43 -256
-173 -256 -99 0 -146 44 -199 190 -20 58 -49 127 -62 154 -34 68 -121 151
-190 184 l-58 27 -300 0 c-165 0 -563 -6 -885 -14 -473 -12 -621 -12 -775 -2
-358 23 -636 62 -862 121 l-113 29 -128 -127 c-178 -177 -273 -306 -358 -487
-89 -192 -125 -355 -125 -575 0 -282 73 -523 234 -767 373 -565 1117 -908
1908 -879 259 9 463 45 699 122 578 190 1022 590 1191 1073 40 117 63 150 119
179 115 58 248 -11 266 -139 12 -88 -107 -376 -235 -569 -151 -228 -366 -440
-613 -603 -326 -216 -645 -335 -1108 -412 -131 -22 -522 -31 -676 -15 -528 54
-978 224 -1367 516 -630 472 -920 1209 -747 1894 85 338 261 640 524 901 l95
94 -29 60 c-43 86 -54 159 -53 335 1 261 48 420 160 541 77 83 212 162 341
200 l42 12 -2 396 -3 396 -140 5 c-157 6 -185 15 -232 76 -21 29 -28 50 -31
98 -3 53 0 66 24 103 31 47 83 80 140 88 21 3 545 14 1164 25 619 11 1179 22
1245 23 66 2 224 3 352 3 l231 -1 39 -30z m32 -2793 c19 -9 48 -34 65 -56 l31
-38 -3 -432 c-1 -237 -6 -573 -10 -746 l-8 -316 -26 -44 c-63 -108 -201 -127
-289 -39 -53 53 -57 89 -52 405 l6 272 -1429 1 c-962 1 -1442 5 -1469 12 -115
31 -174 149 -126 254 22 48 44 69 96 91 37 16 139 17 1488 15 l1447 -3 1 39
c0 21 4 135 8 253 6 203 8 217 31 258 47 83 156 117 239 74z"/>
<path d="M7193 8082 l-211 -2 -6 -73 c-3 -39 -8 -256 -11 -482 -5 -384 -6
-412 -25 -451 -12 -23 -38 -54 -60 -69 -53 -36 -127 -44 -465 -47 l-272 -2
-44 26 c-27 16 -54 43 -69 70 l-25 43 -3 483 -3 482 -342 -6 c-188 -3 -348 -7
-354 -10 -10 -3 -13 -86 -13 -371 0 -202 4 -373 8 -379 4 -7 34 -17 67 -24 72
-15 102 -29 136 -67 39 -42 49 -66 49 -123 0 -57 -15 -93 -57 -132 -47 -44
-75 -50 -223 -43 -123 6 -143 4 -231 -18 -162 -42 -243 -97 -269 -184 -7 -21
-14 -104 -17 -184 -6 -176 2 -211 55 -238 126 -64 428 -124 793 -156 216 -20
563 -21 1261 -4 l527 13 5 50 c7 69 25 1009 28 1500 2 261 0 400 -7 400 -5 1
-105 0 -222 -2z"/>
</g>
</svg>
